STARTFONT 2.1
FONT -FontForge-Edit Undo BRK-Normal-R-Normal--13-100-96-96-P-66-WinRoman-0
SIZE 10 96 96
FONTBOUNDINGBOX 10 12 0 -2
COMMENT "Generated by fontforge, http://fontforge.sourceforge.net"
COMMENT "ÆNIGMA FONTS   [e-mail]  kentpw@norwich.net"
STARTPROPERTIES 33
FOUNDRY "FontForge"
FAMILY_NAME "Edit Undo BRK"
WEIGHT_NAME "Normal"
SLANT "R"
SETWIDTH_NAME "Normal"
ADD_STYLE_NAME ""
PIXEL_SIZE 13
POINT_SIZE 100
RESOLUTION_X 96
RESOLUTION_Y 96
SPACING "P"
AVERAGE_WIDTH 66
CHARSET_REGISTRY "WinRoman"
CHARSET_ENCODING "0"
FONTNAME_REGISTRY ""
CHARSET_COLLECTIONS "WinRoman"
FONT_NAME "EditUndo-BRK-"
FACE_NAME "Edit Undo -BRK-"
COPYRIGHT "ÆNIGMA FONTS   [e-mail]  kentpw@norwich.net"
FONT_VERSION "001.000"
FONT_ASCENT 10
FONT_DESCENT 3
UNDERLINE_POSITION -1
UNDERLINE_THICKNESS 1
X_HEIGHT 7
CAP_HEIGHT 7
RAW_ASCENT 800
RAW_DESCENT 200
NORM_SPACE 7
RELATIVE_WEIGHT 40
RELATIVE_SETWIDTH 50
AVG_LOWERCASE_WIDTH 68
AVG_UPPERCASE_WIDTH 71
ENDPROPERTIES
CHARS 224
STARTCHAR space
ENCODING 32
SWIDTH 538 0
DWIDTH 7 0
BBX 1 1 6 -2
BITMAP
00
ENDCHAR
STARTCHAR exclam
ENCODING 33
SWIDTH 231 0
DWIDTH 3 0
BBX 2 8 0 0
BITMAP
C0
C0
C0
C0
C0
00
C0
C0
ENDCHAR
STARTCHAR quotedbl
ENCODING 34
SWIDTH 462 0
DWIDTH 6 0
BBX 5 2 0 6
BITMAP
D8
D8
ENDCHAR
STARTCHAR numbersign
ENCODING 35
SWIDTH 615 0
DWIDTH 8 0
BBX 7 8 0 0
BITMAP
6C
FE
FE
6C
6C
FE
FE
6C
ENDCHAR
STARTCHAR dollar
ENCODING 36
SWIDTH 538 0
DWIDTH 7 0
BBX 6 10 0 -1
BITMAP
30
7C
FC
C0
F8
7C
0C
FC
F8
30
ENDCHAR
STARTCHAR percent
ENCODING 37
SWIDTH 692 0
DWIDTH 9 0
BBX 8 8 0 0
BITMAP
E3
A7
EE
1C
38
77
E5
C7
ENDCHAR
STARTCHAR ampersand
ENCODING 38
SWIDTH 538 0
DWIDTH 7 0
BBX 6 10 0 -1
BITMAP
30
7C
FC
C0
F0
F0
C0
FC
7C
30
ENDCHAR
STARTCHAR quotesingle
ENCODING 39
SWIDTH 231 0
DWIDTH 3 0
BBX 2 2 0 6
BITMAP
C0
C0
ENDCHAR
STARTCHAR parenleft
ENCODING 40
SWIDTH 308 0
DWIDTH 4 0
BBX 3 8 0 0
BITMAP
60
E0
C0
C0
C0
C0
E0
60
ENDCHAR
STARTCHAR parenright
ENCODING 41
SWIDTH 308 0
DWIDTH 4 0
BBX 3 8 0 0
BITMAP
C0
E0
60
60
60
60
E0
C0
ENDCHAR
STARTCHAR asterisk
ENCODING 42
SWIDTH 538 0
DWIDTH 7 0
BBX 6 6 0 2
BITMAP
30
FC
FC
78
FC
CC
ENDCHAR
STARTCHAR plus
ENCODING 43
SWIDTH 538 0
DWIDTH 7 0
BBX 6 6 0 1
BITMAP
30
30
FC
FC
30
30
ENDCHAR
STARTCHAR comma
ENCODING 44
SWIDTH 231 0
DWIDTH 3 0
BBX 2 3 0 -1
BITMAP
C0
C0
C0
ENDCHAR
STARTCHAR hyphen
ENCODING 45
SWIDTH 538 0
DWIDTH 7 0
BBX 6 2 0 3
BITMAP
FC
FC
ENDCHAR
STARTCHAR period
ENCODING 46
SWIDTH 231 0
DWIDTH 3 0
BBX 2 2 0 0
BITMAP
C0
C0
ENDCHAR
STARTCHAR slash
ENCODING 47
SWIDTH 692 0
DWIDTH 9 0
BBX 8 8 0 0
BITMAP
03
07
0E
1C
38
70
E0
C0
ENDCHAR
STARTCHAR zero
ENCODING 48
SWIDTH 538 0
DWIDTH 7 0
BBX 6 8 0 0
BITMAP
78
FC
CC
CC
CC
CC
FC
78
ENDCHAR
STARTCHAR one
ENCODING 49
SWIDTH 231 0
DWIDTH 3 0
BBX 2 8 0 0
BITMAP
C0
C0
C0
C0
C0
C0
C0
C0
ENDCHAR
STARTCHAR two
ENCODING 50
SWIDTH 538 0
DWIDTH 7 0
BBX 6 8 0 0
BITMAP
F8
FC
0C
7C
F8
C0
FC
FC
ENDCHAR
STARTCHAR three
ENCODING 51
SWIDTH 538 0
DWIDTH 7 0
BBX 6 8 0 0
BITMAP
F8
FC
0C
3C
3C
0C
FC
F8
ENDCHAR
STARTCHAR four
ENCODING 52
SWIDTH 538 0
DWIDTH 7 0
BBX 6 8 0 0
BITMAP
CC
CC
CC
FC
7C
0C
0C
0C
ENDCHAR
STARTCHAR five
ENCODING 53
SWIDTH 538 0
DWIDTH 7 0
BBX 6 8 0 0
BITMAP
FC
FC
C0
F8
7C
0C
FC
F8
ENDCHAR
STARTCHAR six
ENCODING 54
SWIDTH 538 0
DWIDTH 7 0
BBX 6 8 0 0
BITMAP
7C
FC
C0
F8
FC
CC
FC
78
ENDCHAR
STARTCHAR seven
ENCODING 55
SWIDTH 538 0
DWIDTH 7 0
BBX 6 8 0 0
BITMAP
F8
FC
0C
0C
0C
0C
0C
0C
ENDCHAR
STARTCHAR eight
ENCODING 56
SWIDTH 538 0
DWIDTH 7 0
BBX 6 8 0 0
BITMAP
78
FC
CC
FC
FC
CC
FC
78
ENDCHAR
STARTCHAR nine
ENCODING 57
SWIDTH 538 0
DWIDTH 7 0
BBX 6 8 0 0
BITMAP
78
FC
CC
FC
7C
0C
0C
0C
ENDCHAR
STARTCHAR colon
ENCODING 58
SWIDTH 231 0
DWIDTH 3 0
BBX 2 8 0 0
BITMAP
C0
C0
00
00
00
00
C0
C0
ENDCHAR
STARTCHAR semicolon
ENCODING 59
SWIDTH 231 0
DWIDTH 3 0
BBX 2 9 0 -1
BITMAP
C0
C0
00
00
00
00
C0
C0
C0
ENDCHAR
STARTCHAR less
ENCODING 60
SWIDTH 462 0
DWIDTH 6 0
BBX 5 8 0 0
BITMAP
18
38
70
E0
E0
70
38
18
ENDCHAR
STARTCHAR equal
ENCODING 61
SWIDTH 538 0
DWIDTH 7 0
BBX 6 6 0 1
BITMAP
FC
FC
00
00
FC
FC
ENDCHAR
STARTCHAR greater
ENCODING 62
SWIDTH 462 0
DWIDTH 6 0
BBX 5 8 0 0
BITMAP
C0
E0
70
38
38
70
E0
C0
ENDCHAR
STARTCHAR question
ENCODING 63
SWIDTH 538 0
DWIDTH 7 0
BBX 6 8 0 0
BITMAP
F8
FC
0C
3C
38
00
30
30
ENDCHAR
STARTCHAR at
ENCODING 64
SWIDTH 692 0
DWIDTH 9 0
BBX 8 8 0 0
BITMAP
7E
FF
C3
CF
DF
DB
DF
CE
ENDCHAR
STARTCHAR A
ENCODING 65
SWIDTH 538 0
DWIDTH 7 0
BBX 6 8 0 0
BITMAP
78
FC
CC
FC
FC
CC
CC
CC
ENDCHAR
STARTCHAR B
ENCODING 66
SWIDTH 538 0
DWIDTH 7 0
BBX 6 8 0 0
BITMAP
F8
FC
CC
F8
F8
CC
FC
F8
ENDCHAR
STARTCHAR C
ENCODING 67
SWIDTH 538 0
DWIDTH 7 0
BBX 6 8 0 0
BITMAP
7C
FC
C0
C0
C0
C0
FC
7C
ENDCHAR
STARTCHAR D
ENCODING 68
SWIDTH 538 0
DWIDTH 7 0
BBX 6 8 0 0
BITMAP
F0
F8
DC
CC
CC
DC
F8
F0
ENDCHAR
STARTCHAR E
ENCODING 69
SWIDTH 538 0
DWIDTH 7 0
BBX 6 8 0 0
BITMAP
7C
FC
C0
F0
F0
C0
FC
7C
ENDCHAR
STARTCHAR F
ENCODING 70
SWIDTH 538 0
DWIDTH 7 0
BBX 6 8 0 0
BITMAP
7C
FC
C0
F0
F0
C0
C0
C0
ENDCHAR
STARTCHAR G
ENCODING 71
SWIDTH 538 0
DWIDTH 7 0
BBX 6 8 0 0
BITMAP
7C
FC
C0
DC
DC
CC
FC
7C
ENDCHAR
STARTCHAR H
ENCODING 72
SWIDTH 538 0
DWIDTH 7 0
BBX 6 8 0 0
BITMAP
CC
CC
CC
FC
FC
CC
CC
CC
ENDCHAR
STARTCHAR I
ENCODING 73
SWIDTH 538 0
DWIDTH 7 0
BBX 6 8 0 0
BITMAP
FC
FC
30
30
30
30
FC
FC
ENDCHAR
STARTCHAR J
ENCODING 74
SWIDTH 538 0
DWIDTH 7 0
BBX 6 8 0 0
BITMAP
0C
0C
0C
0C
0C
CC
FC
78
ENDCHAR
STARTCHAR K
ENCODING 75
SWIDTH 538 0
DWIDTH 7 0
BBX 6 8 0 0
BITMAP
CC
DC
F8
F0
F0
F8
DC
CC
ENDCHAR
STARTCHAR L
ENCODING 76
SWIDTH 538 0
DWIDTH 7 0
BBX 6 8 0 0
BITMAP
C0
C0
C0
C0
C0
C0
FC
7C
ENDCHAR
STARTCHAR M
ENCODING 77
SWIDTH 615 0
DWIDTH 8 0
BBX 7 8 0 0
BITMAP
C6
EE
FE
FE
D6
C6
C6
C6
ENDCHAR
STARTCHAR N
ENCODING 78
SWIDTH 538 0
DWIDTH 7 0
BBX 6 8 0 0
BITMAP
CC
EC
FC
FC
DC
CC
CC
CC
ENDCHAR
STARTCHAR O
ENCODING 79
SWIDTH 538 0
DWIDTH 7 0
BBX 6 8 0 0
BITMAP
78
FC
CC
CC
CC
CC
FC
78
ENDCHAR
STARTCHAR P
ENCODING 80
SWIDTH 538 0
DWIDTH 7 0
BBX 6 8 0 0
BITMAP
F8
FC
CC
FC
F8
C0
C0
C0
ENDCHAR
STARTCHAR Q
ENCODING 81
SWIDTH 538 0
DWIDTH 7 0
BBX 6 8 0 0
BITMAP
78
FC
CC
CC
CC
DC
FC
7C
ENDCHAR
STARTCHAR R
ENCODING 82
SWIDTH 538 0
DWIDTH 7 0
BBX 6 8 0 0
BITMAP
F8
FC
CC
FC
F8
DC
CC
CC
ENDCHAR
STARTCHAR S
ENCODING 83
SWIDTH 538 0
DWIDTH 7 0
BBX 6 8 0 0
BITMAP
7C
FC
C0
F8
7C
0C
FC
F8
ENDCHAR
STARTCHAR T
ENCODING 84
SWIDTH 538 0
DWIDTH 7 0
BBX 6 8 0 0
BITMAP
FC
FC
30
30
30
30
30
30
ENDCHAR
STARTCHAR U
ENCODING 85
SWIDTH 538 0
DWIDTH 7 0
BBX 6 8 0 0
BITMAP
CC
CC
CC
CC
CC
CC
FC
78
ENDCHAR
STARTCHAR V
ENCODING 86
SWIDTH 538 0
DWIDTH 7 0
BBX 6 8 0 0
BITMAP
CC
CC
CC
CC
CC
FC
78
30
ENDCHAR
STARTCHAR W
ENCODING 87
SWIDTH 615 0
DWIDTH 8 0
BBX 7 8 0 0
BITMAP
C6
C6
C6
D6
FE
FE
EE
C6
ENDCHAR
STARTCHAR X
ENCODING 88
SWIDTH 538 0
DWIDTH 7 0
BBX 6 8 0 0
BITMAP
CC
CC
FC
78
78
FC
CC
CC
ENDCHAR
STARTCHAR Y
ENCODING 89
SWIDTH 538 0
DWIDTH 7 0
BBX 6 8 0 0
BITMAP
CC
CC
CC
FC
78
30
30
30
ENDCHAR
STARTCHAR Z
ENCODING 90
SWIDTH 538 0
DWIDTH 7 0
BBX 6 8 0 0
BITMAP
FC
FC
1C
38
70
E0
FC
FC
ENDCHAR
STARTCHAR bracketleft
ENCODING 91
SWIDTH 308 0
DWIDTH 4 0
BBX 3 8 0 0
BITMAP
E0
E0
C0
C0
C0
C0
E0
E0
ENDCHAR
STARTCHAR backslash
ENCODING 92
SWIDTH 692 0
DWIDTH 9 0
BBX 8 8 0 0
BITMAP
C0
E0
70
38
1C
0E
07
03
ENDCHAR
STARTCHAR bracketright
ENCODING 93
SWIDTH 308 0
DWIDTH 4 0
BBX 3 8 0 0
BITMAP
E0
E0
60
60
60
60
E0
E0
ENDCHAR
STARTCHAR asciicircum
ENCODING 94
SWIDTH 538 0
DWIDTH 7 0
BBX 6 4 0 4
BITMAP
30
78
FC
CC
ENDCHAR
STARTCHAR underscore
ENCODING 95
SWIDTH 538 0
DWIDTH 7 0
BBX 6 2 0 -1
BITMAP
FC
FC
ENDCHAR
STARTCHAR grave
ENCODING 96
SWIDTH 231 0
DWIDTH 3 0
BBX 2 2 0 6
BITMAP
C0
C0
ENDCHAR
STARTCHAR a
ENCODING 97
SWIDTH 538 0
DWIDTH 7 0
BBX 6 8 0 0
BITMAP
78
FC
CC
FC
FC
CC
CC
CC
ENDCHAR
STARTCHAR b
ENCODING 98
SWIDTH 538 0
DWIDTH 7 0
BBX 6 8 0 0
BITMAP
F8
FC
CC
FC
FC
CC
FC
F8
ENDCHAR
STARTCHAR c
ENCODING 99
SWIDTH 538 0
DWIDTH 7 0
BBX 6 8 0 0
BITMAP
78
FC
CC
C0
C0
CC
FC
78
ENDCHAR
STARTCHAR d
ENCODING 100
SWIDTH 538 0
DWIDTH 7 0
BBX 6 8 0 0
BITMAP
F8
FC
CC
CC
CC
CC
FC
F8
ENDCHAR
STARTCHAR e
ENCODING 101
SWIDTH 538 0
DWIDTH 7 0
BBX 6 8 0 0
BITMAP
7C
FC
C0
F0
F0
C0
FC
7C
ENDCHAR
STARTCHAR f
ENCODING 102
SWIDTH 538 0
DWIDTH 7 0
BBX 6 8 0 0
BITMAP
7C
FC
C0
F0
F0
C0
C0
C0
ENDCHAR
STARTCHAR g
ENCODING 103
SWIDTH 538 0
DWIDTH 7 0
BBX 6 8 0 0
BITMAP
7C
FC
C0
DC
DC
CC
FC
78
ENDCHAR
STARTCHAR h
ENCODING 104
SWIDTH 538 0
DWIDTH 7 0
BBX 6 8 0 0
BITMAP
CC
CC
CC
FC
FC
CC
CC
CC
ENDCHAR
STARTCHAR i
ENCODING 105
SWIDTH 231 0
DWIDTH 3 0
BBX 2 8 0 0
BITMAP
C0
C0
C0
C0
C0
C0
C0
C0
ENDCHAR
STARTCHAR j
ENCODING 106
SWIDTH 538 0
DWIDTH 7 0
BBX 6 8 0 0
BITMAP
0C
0C
0C
0C
0C
CC
FC
78
ENDCHAR
STARTCHAR k
ENCODING 107
SWIDTH 538 0
DWIDTH 7 0
BBX 6 8 0 0
BITMAP
CC
DC
F8
F0
F0
F8
DC
CC
ENDCHAR
STARTCHAR l
ENCODING 108
SWIDTH 538 0
DWIDTH 7 0
BBX 6 8 0 0
BITMAP
C0
C0
C0
C0
C0
C0
FC
7C
ENDCHAR
STARTCHAR m
ENCODING 109
SWIDTH 692 0
DWIDTH 9 0
BBX 8 8 0 0
BITMAP
7E
FF
DB
DB
DB
DB
DB
DB
ENDCHAR
STARTCHAR n
ENCODING 110
SWIDTH 538 0
DWIDTH 7 0
BBX 6 8 0 0
BITMAP
78
FC
CC
CC
CC
CC
CC
CC
ENDCHAR
STARTCHAR o
ENCODING 111
SWIDTH 538 0
DWIDTH 7 0
BBX 6 8 0 0
BITMAP
78
FC
CC
CC
CC
CC
FC
78
ENDCHAR
STARTCHAR p
ENCODING 112
SWIDTH 538 0
DWIDTH 7 0
BBX 6 8 0 0
BITMAP
78
FC
CC
FC
F8
C0
C0
C0
ENDCHAR
STARTCHAR q
ENCODING 113
SWIDTH 538 0
DWIDTH 7 0
BBX 6 9 0 -1
BITMAP
78
FC
CC
CC
CC
CC
FC
78
30
ENDCHAR
STARTCHAR r
ENCODING 114
SWIDTH 538 0
DWIDTH 7 0
BBX 6 8 0 0
BITMAP
78
FC
CC
FC
F8
DC
CC
CC
ENDCHAR
STARTCHAR s
ENCODING 115
SWIDTH 538 0
DWIDTH 7 0
BBX 6 8 0 0
BITMAP
7C
FC
C0
F8
7C
0C
FC
F8
ENDCHAR
STARTCHAR t
ENCODING 116
SWIDTH 538 0
DWIDTH 7 0
BBX 6 8 0 0
BITMAP
FC
FC
30
30
30
30
30
30
ENDCHAR
STARTCHAR u
ENCODING 117
SWIDTH 538 0
DWIDTH 7 0
BBX 6 8 0 0
BITMAP
CC
CC
CC
CC
CC
CC
FC
78
ENDCHAR
STARTCHAR v
ENCODING 118
SWIDTH 538 0
DWIDTH 7 0
BBX 6 8 0 0
BITMAP
CC
CC
CC
CC
DC
F8
F0
E0
ENDCHAR
STARTCHAR w
ENCODING 119
SWIDTH 692 0
DWIDTH 9 0
BBX 8 8 0 0
BITMAP
DB
DB
DB
DB
DB
DB
FF
7E
ENDCHAR
STARTCHAR x
ENCODING 120
SWIDTH 538 0
DWIDTH 7 0
BBX 6 8 0 0
BITMAP
CC
CC
FC
78
78
FC
CC
CC
ENDCHAR
STARTCHAR y
ENCODING 121
SWIDTH 538 0
DWIDTH 7 0
BBX 6 8 0 0
BITMAP
CC
CC
CC
FC
78
30
30
30
ENDCHAR
STARTCHAR z
ENCODING 122
SWIDTH 538 0
DWIDTH 7 0
BBX 6 8 0 0
BITMAP
FC
FC
1C
38
70
E0
FC
FC
ENDCHAR
STARTCHAR braceleft
ENCODING 123
SWIDTH 385 0
DWIDTH 5 0
BBX 4 8 0 0
BITMAP
30
70
60
E0
E0
60
70
30
ENDCHAR
STARTCHAR bar
ENCODING 124
SWIDTH 231 0
DWIDTH 3 0
BBX 2 10 0 -1
BITMAP
C0
C0
C0
C0
C0
C0
C0
C0
C0
C0
ENDCHAR
STARTCHAR braceright
ENCODING 125
SWIDTH 385 0
DWIDTH 5 0
BBX 4 8 0 0
BITMAP
C0
E0
60
70
70
60
E0
C0
ENDCHAR
STARTCHAR asciitilde
ENCODING 126
SWIDTH 615 0
DWIDTH 8 0
BBX 7 4 0 2
BITMAP
70
F6
DE
1C
ENDCHAR
STARTCHAR uni007F
ENCODING 127
SWIDTH 538 0
DWIDTH 7 0
BBX 6 8 0 0
BITMAP
FC
FC
FC
FC
FC
FC
FC
FC
ENDCHAR
STARTCHAR Euro
ENCODING 128
SWIDTH 538 0
DWIDTH 7 0
BBX 6 8 0 0
BITMAP
FC
FC
FC
FC
FC
FC
FC
FC
ENDCHAR
STARTCHAR NameMe.129
ENCODING 129
SWIDTH 538 0
DWIDTH 7 0
BBX 6 8 0 0
BITMAP
FC
FC
FC
FC
FC
FC
FC
FC
ENDCHAR
STARTCHAR quotesinglbase
ENCODING 130
SWIDTH 231 0
DWIDTH 3 0
BBX 2 3 0 -1
BITMAP
C0
C0
C0
ENDCHAR
STARTCHAR florin
ENCODING 131
SWIDTH 538 0
DWIDTH 7 0
BBX 6 8 0 0
BITMAP
3C
7C
60
F0
F0
60
E0
C0
ENDCHAR
STARTCHAR quotedblbase
ENCODING 132
SWIDTH 462 0
DWIDTH 6 0
BBX 5 3 0 -1
BITMAP
D8
D8
D8
ENDCHAR
STARTCHAR ellipsis
ENCODING 133
SWIDTH 692 0
DWIDTH 9 0
BBX 8 2 0 0
BITMAP
DB
DB
ENDCHAR
STARTCHAR dagger
ENCODING 134
SWIDTH 538 0
DWIDTH 7 0
BBX 6 8 0 0
BITMAP
30
FC
FC
30
30
30
30
30
ENDCHAR
STARTCHAR daggerdbl
ENCODING 135
SWIDTH 538 0
DWIDTH 7 0
BBX 6 8 0 0
BITMAP
30
FC
FC
30
30
FC
FC
30
ENDCHAR
STARTCHAR circumflex
ENCODING 136
SWIDTH 385 0
DWIDTH 5 0
BBX 4 2 0 8
BITMAP
60
90
ENDCHAR
STARTCHAR perthousand
ENCODING 137
SWIDTH 846 0
DWIDTH 11 0
BBX 10 8 0 0
BITMAP
E300
A700
EE00
1C00
3800
77C0
E540
C7C0
ENDCHAR
STARTCHAR Scaron
ENCODING 138
SWIDTH 538 0
DWIDTH 7 0
BBX 6 10 0 0
BITMAP
48
30
7C
FC
C0
F8
7C
0C
FC
F8
ENDCHAR
STARTCHAR guilsinglleft
ENCODING 139
SWIDTH 385 0
DWIDTH 5 0
BBX 4 6 0 1
BITMAP
30
70
E0
E0
70
30
ENDCHAR
STARTCHAR OE
ENCODING 140
SWIDTH 846 0
DWIDTH 11 0
BBX 10 8 0 0
BITMAP
7FC0
FFC0
CC00
CF00
CF00
CC00
FFC0
7FC0
ENDCHAR
STARTCHAR NameMe.141
ENCODING 141
SWIDTH 538 0
DWIDTH 7 0
BBX 6 8 0 0
BITMAP
FC
FC
FC
FC
FC
FC
FC
FC
ENDCHAR
STARTCHAR Zcaron
ENCODING 142
SWIDTH 538 0
DWIDTH 7 0
BBX 6 8 0 0
BITMAP
FC
FC
FC
FC
FC
FC
FC
FC
ENDCHAR
STARTCHAR NameMe.143
ENCODING 143
SWIDTH 538 0
DWIDTH 7 0
BBX 6 8 0 0
BITMAP
FC
FC
FC
FC
FC
FC
FC
FC
ENDCHAR
STARTCHAR NameMe.144
ENCODING 144
SWIDTH 538 0
DWIDTH 7 0
BBX 6 8 0 0
BITMAP
FC
FC
FC
FC
FC
FC
FC
FC
ENDCHAR
STARTCHAR quoteleft
ENCODING 145
SWIDTH 231 0
DWIDTH 3 0
BBX 2 3 0 6
BITMAP
80
C0
C0
ENDCHAR
STARTCHAR quoteright
ENCODING 146
SWIDTH 231 0
DWIDTH 3 0
BBX 2 3 0 5
BITMAP
C0
C0
40
ENDCHAR
STARTCHAR quotedblleft
ENCODING 147
SWIDTH 462 0
DWIDTH 6 0
BBX 5 3 0 6
BITMAP
90
D8
D8
ENDCHAR
STARTCHAR quotedblright
ENCODING 148
SWIDTH 462 0
DWIDTH 6 0
BBX 5 3 0 5
BITMAP
D8
D8
48
ENDCHAR
STARTCHAR bullet
ENCODING 149
SWIDTH 385 0
DWIDTH 5 0
BBX 4 4 0 2
BITMAP
60
F0
F0
60
ENDCHAR
STARTCHAR endash
ENCODING 150
SWIDTH 385 0
DWIDTH 5 0
BBX 4 2 0 3
BITMAP
F0
F0
ENDCHAR
STARTCHAR emdash
ENCODING 151
SWIDTH 692 0
DWIDTH 9 0
BBX 8 2 0 3
BITMAP
FF
FF
ENDCHAR
STARTCHAR tilde
ENCODING 152
SWIDTH 385 0
DWIDTH 5 0
BBX 4 2 0 8
BITMAP
D0
B0
ENDCHAR
STARTCHAR trademark
ENCODING 153
SWIDTH 692 0
DWIDTH 9 0
BBX 8 8 0 0
BITMAP
7E
7E
18
18
7E
FF
DB
DB
ENDCHAR
STARTCHAR scaron
ENCODING 154
SWIDTH 538 0
DWIDTH 7 0
BBX 6 10 0 0
BITMAP
48
30
7C
FC
C0
F8
7C
0C
FC
F8
ENDCHAR
STARTCHAR guilsinglright
ENCODING 155
SWIDTH 385 0
DWIDTH 5 0
BBX 4 6 0 1
BITMAP
C0
E0
70
70
E0
C0
ENDCHAR
STARTCHAR oe
ENCODING 156
SWIDTH 846 0
DWIDTH 11 0
BBX 10 8 0 0
BITMAP
7FC0
FFC0
CC00
CF00
CF00
CC00
FFC0
7FC0
ENDCHAR
STARTCHAR NameMe.157
ENCODING 157
SWIDTH 538 0
DWIDTH 7 0
BBX 6 8 0 0
BITMAP
FC
FC
FC
FC
FC
FC
FC
FC
ENDCHAR
STARTCHAR zcaron
ENCODING 158
SWIDTH 538 0
DWIDTH 7 0
BBX 6 8 0 0
BITMAP
FC
FC
FC
FC
FC
FC
FC
FC
ENDCHAR
STARTCHAR Ydieresis
ENCODING 159
SWIDTH 538 0
DWIDTH 7 0
BBX 6 10 0 0
BITMAP
48
00
CC
CC
CC
FC
78
30
30
30
ENDCHAR
STARTCHAR uni00A0
ENCODING 160
SWIDTH 538 0
DWIDTH 7 0
BBX 1 1 6 -2
BITMAP
00
ENDCHAR
STARTCHAR exclamdown
ENCODING 161
SWIDTH 231 0
DWIDTH 3 0
BBX 2 8 0 0
BITMAP
C0
C0
00
C0
C0
C0
C0
C0
ENDCHAR
STARTCHAR cent
ENCODING 162
SWIDTH 538 0
DWIDTH 7 0
BBX 6 12 0 -2
BITMAP
30
30
78
FC
CC
C0
C0
CC
FC
78
30
30
ENDCHAR
STARTCHAR sterling
ENCODING 163
SWIDTH 615 0
DWIDTH 8 0
BBX 7 8 0 0
BITMAP
3C
7E
66
F0
F0
66
FE
FC
ENDCHAR
STARTCHAR currency
ENCODING 164
SWIDTH 692 0
DWIDTH 9 0
BBX 8 8 0 0
BITMAP
C3
BD
7E
66
66
7E
BD
C3
ENDCHAR
STARTCHAR yen
ENCODING 165
SWIDTH 538 0
DWIDTH 7 0
BBX 6 8 0 0
BITMAP
CC
CC
CC
FC
78
FC
30
FC
ENDCHAR
STARTCHAR brokenbar
ENCODING 166
SWIDTH 231 0
DWIDTH 3 0
BBX 2 10 0 -1
BITMAP
C0
C0
C0
C0
00
00
C0
C0
C0
C0
ENDCHAR
STARTCHAR section
ENCODING 167
SWIDTH 538 0
DWIDTH 7 0
BBX 6 11 0 -1
BITMAP
7C
FC
C0
F8
FC
CC
FC
7C
0C
FC
F8
ENDCHAR
STARTCHAR dieresis
ENCODING 168
SWIDTH 385 0
DWIDTH 5 0
BBX 4 1 0 9
BITMAP
90
ENDCHAR
STARTCHAR copyright
ENCODING 169
SWIDTH 769 0
DWIDTH 10 0
BBX 9 10 0 -1
BITMAP
7F00
FF80
C180
CD80
D180
D180
CD80
C180
FF80
7F00
ENDCHAR
STARTCHAR ordfeminine
ENCODING 170
SWIDTH 538 0
DWIDTH 7 0
BBX 6 8 0 2
BITMAP
38
3C
0C
7C
FC
CC
FC
7C
ENDCHAR
STARTCHAR guillemotleft
ENCODING 171
SWIDTH 692 0
DWIDTH 9 0
BBX 8 6 0 1
BITMAP
33
77
EE
EE
77
33
ENDCHAR
STARTCHAR logicalnot
ENCODING 172
SWIDTH 538 0
DWIDTH 7 0
BBX 6 4 0 1
BITMAP
FC
FC
0C
0C
ENDCHAR
STARTCHAR uni00AD
ENCODING 173
SWIDTH 385 0
DWIDTH 5 0
BBX 4 2 0 3
BITMAP
F0
F0
ENDCHAR
STARTCHAR registered
ENCODING 174
SWIDTH 769 0
DWIDTH 10 0
BBX 9 10 0 -1
BITMAP
7F00
FF80
C180
DD80
D580
D980
D580
C180
FF80
7F00
ENDCHAR
STARTCHAR macron
ENCODING 175
SWIDTH 538 0
DWIDTH 7 0
BBX 6 2 0 8
BITMAP
FC
FC
ENDCHAR
STARTCHAR degree
ENCODING 176
SWIDTH 308 0
DWIDTH 4 0
BBX 3 3 0 7
BITMAP
E0
A0
E0
ENDCHAR
STARTCHAR plusminus
ENCODING 177
SWIDTH 538 0
DWIDTH 7 0
BBX 6 8 0 0
BITMAP
30
30
FC
FC
30
30
FC
FC
ENDCHAR
STARTCHAR uni00B2
ENCODING 178
SWIDTH 308 0
DWIDTH 4 0
BBX 3 5 0 5
BITMAP
E0
20
E0
80
E0
ENDCHAR
STARTCHAR uni00B3
ENCODING 179
SWIDTH 308 0
DWIDTH 4 0
BBX 3 5 0 5
BITMAP
E0
20
60
20
E0
ENDCHAR
STARTCHAR acute
ENCODING 180
SWIDTH 231 0
DWIDTH 3 0
BBX 2 2 0 8
BITMAP
40
80
ENDCHAR
STARTCHAR mu
ENCODING 181
SWIDTH 538 0
DWIDTH 7 0
BBX 6 10 0 -2
BITMAP
CC
CC
CC
CC
CC
CC
FC
F8
C0
C0
ENDCHAR
STARTCHAR paragraph
ENCODING 182
SWIDTH 692 0
DWIDTH 9 0
BBX 8 8 0 0
BITMAP
7F
FF
F6
F6
76
36
36
36
ENDCHAR
STARTCHAR periodcentered
ENCODING 183
SWIDTH 231 0
DWIDTH 3 0
BBX 2 2 0 3
BITMAP
C0
C0
ENDCHAR
STARTCHAR cedilla
ENCODING 184
SWIDTH 231 0
DWIDTH 3 0
BBX 2 2 0 -2
BITMAP
40
C0
ENDCHAR
STARTCHAR uni00B9
ENCODING 185
SWIDTH 154 0
DWIDTH 2 0
BBX 1 5 0 5
BITMAP
80
80
80
80
80
ENDCHAR
STARTCHAR ordmasculine
ENCODING 186
SWIDTH 308 0
DWIDTH 4 0
BBX 3 5 0 5
BITMAP
E0
A0
A0
A0
E0
ENDCHAR
STARTCHAR guillemotright
ENCODING 187
SWIDTH 692 0
DWIDTH 9 0
BBX 8 6 0 1
BITMAP
CC
EE
77
77
EE
CC
ENDCHAR
STARTCHAR onequarter
ENCODING 188
SWIDTH 692 0
DWIDTH 9 0
BBX 8 10 0 -1
BITMAP
40
43
47
4E
5C
3D
75
E7
C1
01
ENDCHAR
STARTCHAR onehalf
ENCODING 189
SWIDTH 692 0
DWIDTH 9 0
BBX 8 10 0 -1
BITMAP
40
43
47
4E
5C
3F
71
E7
C4
07
ENDCHAR
STARTCHAR threequarters
ENCODING 190
SWIDTH 692 0
DWIDTH 9 0
BBX 8 10 0 -1
BITMAP
E0
23
67
2E
FC
3D
75
E7
C1
01
ENDCHAR
STARTCHAR questiondown
ENCODING 191
SWIDTH 538 0
DWIDTH 7 0
BBX 6 8 0 0
BITMAP
30
30
00
70
F0
C0
FC
7C
ENDCHAR
STARTCHAR Agrave
ENCODING 192
SWIDTH 538 0
DWIDTH 7 0
BBX 6 10 0 0
BITMAP
20
10
78
FC
CC
FC
FC
CC
CC
CC
ENDCHAR
STARTCHAR Aacute
ENCODING 193
SWIDTH 538 0
DWIDTH 7 0
BBX 6 10 0 0
BITMAP
10
20
78
FC
CC
FC
FC
CC
CC
CC
ENDCHAR
STARTCHAR Acircumflex
ENCODING 194
SWIDTH 538 0
DWIDTH 7 0
BBX 6 10 0 0
BITMAP
30
48
78
FC
CC
FC
FC
CC
CC
CC
ENDCHAR
STARTCHAR Atilde
ENCODING 195
SWIDTH 538 0
DWIDTH 7 0
BBX 6 10 0 0
BITMAP
68
58
78
FC
CC
FC
FC
CC
CC
CC
ENDCHAR
STARTCHAR Adieresis
ENCODING 196
SWIDTH 538 0
DWIDTH 7 0
BBX 6 10 0 0
BITMAP
48
00
78
FC
CC
FC
FC
CC
CC
CC
ENDCHAR
STARTCHAR Aring
ENCODING 197
SWIDTH 538 0
DWIDTH 7 0
BBX 6 10 0 0
BITMAP
78
48
78
FC
CC
FC
FC
CC
CC
CC
ENDCHAR
STARTCHAR AE
ENCODING 198
SWIDTH 846 0
DWIDTH 11 0
BBX 10 8 0 0
BITMAP
7FC0
FFC0
CC00
FF00
FF00
CC00
CFC0
C7C0
ENDCHAR
STARTCHAR Ccedilla
ENCODING 199
SWIDTH 538 0
DWIDTH 7 0
BBX 6 10 0 -2
BITMAP
7C
FC
C0
C0
C0
C0
FC
7C
10
30
ENDCHAR
STARTCHAR Egrave
ENCODING 200
SWIDTH 538 0
DWIDTH 7 0
BBX 6 10 0 0
BITMAP
20
10
7C
FC
C0
F0
F0
C0
FC
7C
ENDCHAR
STARTCHAR Eacute
ENCODING 201
SWIDTH 538 0
DWIDTH 7 0
BBX 6 10 0 0
BITMAP
10
20
7C
FC
C0
F0
F0
C0
FC
7C
ENDCHAR
STARTCHAR Ecircumflex
ENCODING 202
SWIDTH 538 0
DWIDTH 7 0
BBX 6 10 0 0
BITMAP
30
48
7C
FC
C0
F0
F0
C0
FC
7C
ENDCHAR
STARTCHAR Edieresis
ENCODING 203
SWIDTH 538 0
DWIDTH 7 0
BBX 6 10 0 0
BITMAP
48
00
7C
FC
C0
F0
F0
C0
FC
7C
ENDCHAR
STARTCHAR Igrave
ENCODING 204
SWIDTH 538 0
DWIDTH 7 0
BBX 6 10 0 0
BITMAP
20
10
FC
FC
30
30
30
30
FC
FC
ENDCHAR
STARTCHAR Iacute
ENCODING 205
SWIDTH 538 0
DWIDTH 7 0
BBX 6 10 0 0
BITMAP
10
20
FC
FC
30
30
30
30
FC
FC
ENDCHAR
STARTCHAR Icircumflex
ENCODING 206
SWIDTH 538 0
DWIDTH 7 0
BBX 6 10 0 0
BITMAP
30
48
FC
FC
30
30
30
30
FC
FC
ENDCHAR
STARTCHAR Idieresis
ENCODING 207
SWIDTH 538 0
DWIDTH 7 0
BBX 6 10 0 0
BITMAP
48
00
FC
FC
30
30
30
30
FC
FC
ENDCHAR
STARTCHAR Eth
ENCODING 208
SWIDTH 615 0
DWIDTH 8 0
BBX 7 8 0 0
BITMAP
7C
7E
66
F6
F6
66
7E
7C
ENDCHAR
STARTCHAR Ntilde
ENCODING 209
SWIDTH 538 0
DWIDTH 7 0
BBX 6 10 0 0
BITMAP
68
58
CC
EC
FC
FC
DC
CC
CC
CC
ENDCHAR
STARTCHAR Ograve
ENCODING 210
SWIDTH 538 0
DWIDTH 7 0
BBX 6 10 0 0
BITMAP
20
10
78
FC
CC
CC
CC
CC
FC
78
ENDCHAR
STARTCHAR Oacute
ENCODING 211
SWIDTH 538 0
DWIDTH 7 0
BBX 6 10 0 0
BITMAP
10
20
78
FC
CC
CC
CC
CC
FC
78
ENDCHAR
STARTCHAR Ocircumflex
ENCODING 212
SWIDTH 538 0
DWIDTH 7 0
BBX 6 10 0 0
BITMAP
30
48
78
FC
CC
CC
CC
CC
FC
78
ENDCHAR
STARTCHAR Otilde
ENCODING 213
SWIDTH 538 0
DWIDTH 7 0
BBX 6 10 0 0
BITMAP
68
58
78
FC
CC
CC
CC
CC
FC
78
ENDCHAR
STARTCHAR Odieresis
ENCODING 214
SWIDTH 538 0
DWIDTH 7 0
BBX 6 10 0 0
BITMAP
48
00
78
FC
CC
CC
CC
CC
FC
78
ENDCHAR
STARTCHAR multiply
ENCODING 215
SWIDTH 462 0
DWIDTH 6 0
BBX 5 5 0 2
BITMAP
D8
F8
70
F8
D8
ENDCHAR
STARTCHAR Oslash
ENCODING 216
SWIDTH 538 0
DWIDTH 7 0
BBX 6 10 0 -1
BITMAP
04
7C
FC
CC
DC
EC
CC
FC
F8
80
ENDCHAR
STARTCHAR Ugrave
ENCODING 217
SWIDTH 538 0
DWIDTH 7 0
BBX 6 10 0 0
BITMAP
20
10
CC
CC
CC
CC
CC
CC
FC
78
ENDCHAR
STARTCHAR Uacute
ENCODING 218
SWIDTH 538 0
DWIDTH 7 0
BBX 6 10 0 0
BITMAP
10
20
CC
CC
CC
CC
CC
CC
FC
78
ENDCHAR
STARTCHAR Ucircumflex
ENCODING 219
SWIDTH 538 0
DWIDTH 7 0
BBX 6 10 0 0
BITMAP
30
48
CC
CC
CC
CC
CC
CC
FC
78
ENDCHAR
STARTCHAR Udieresis
ENCODING 220
SWIDTH 538 0
DWIDTH 7 0
BBX 6 10 0 0
BITMAP
48
00
CC
CC
CC
CC
CC
CC
FC
78
ENDCHAR
STARTCHAR Yacute
ENCODING 221
SWIDTH 538 0
DWIDTH 7 0
BBX 6 10 0 0
BITMAP
10
20
CC
CC
CC
FC
78
30
30
30
ENDCHAR
STARTCHAR Thorn
ENCODING 222
SWIDTH 538 0
DWIDTH 7 0
BBX 6 8 0 0
BITMAP
C0
F8
FC
CC
CC
FC
F8
C0
ENDCHAR
STARTCHAR germandbls
ENCODING 223
SWIDTH 538 0
DWIDTH 7 0
BBX 6 8 0 0
BITMAP
F8
FC
CC
D8
D8
CC
DC
D8
ENDCHAR
STARTCHAR agrave
ENCODING 224
SWIDTH 538 0
DWIDTH 7 0
BBX 6 10 0 0
BITMAP
20
10
78
FC
CC
FC
FC
CC
CC
CC
ENDCHAR
STARTCHAR aacute
ENCODING 225
SWIDTH 538 0
DWIDTH 7 0
BBX 6 10 0 0
BITMAP
10
20
78
FC
CC
FC
FC
CC
CC
CC
ENDCHAR
STARTCHAR acircumflex
ENCODING 226
SWIDTH 538 0
DWIDTH 7 0
BBX 6 10 0 0
BITMAP
30
48
78
FC
CC
FC
FC
CC
CC
CC
ENDCHAR
STARTCHAR atilde
ENCODING 227
SWIDTH 538 0
DWIDTH 7 0
BBX 6 10 0 0
BITMAP
68
58
78
FC
CC
FC
FC
CC
CC
CC
ENDCHAR
STARTCHAR adieresis
ENCODING 228
SWIDTH 538 0
DWIDTH 7 0
BBX 6 10 0 0
BITMAP
48
00
78
FC
CC
FC
FC
CC
CC
CC
ENDCHAR
STARTCHAR aring
ENCODING 229
SWIDTH 538 0
DWIDTH 7 0
BBX 6 10 0 0
BITMAP
78
48
78
FC
CC
FC
FC
CC
CC
CC
ENDCHAR
STARTCHAR ae
ENCODING 230
SWIDTH 846 0
DWIDTH 11 0
BBX 10 8 0 0
BITMAP
7FC0
FFC0
CC00
FF00
FF00
CC00
CFC0
C7C0
ENDCHAR
STARTCHAR ccedilla
ENCODING 231
SWIDTH 538 0
DWIDTH 7 0
BBX 6 10 0 -2
BITMAP
78
FC
CC
C0
C0
CC
FC
78
10
30
ENDCHAR
STARTCHAR egrave
ENCODING 232
SWIDTH 538 0
DWIDTH 7 0
BBX 6 10 0 0
BITMAP
20
10
7C
FC
C0
F0
F0
C0
FC
7C
ENDCHAR
STARTCHAR eacute
ENCODING 233
SWIDTH 538 0
DWIDTH 7 0
BBX 6 10 0 0
BITMAP
10
20
7C
FC
C0
F0
F0
C0
FC
7C
ENDCHAR
STARTCHAR ecircumflex
ENCODING 234
SWIDTH 538 0
DWIDTH 7 0
BBX 6 10 0 0
BITMAP
30
48
7C
FC
C0
F0
F0
C0
FC
7C
ENDCHAR
STARTCHAR edieresis
ENCODING 235
SWIDTH 538 0
DWIDTH 7 0
BBX 6 10 0 0
BITMAP
48
00
7C
FC
C0
F0
F0
C0
FC
7C
ENDCHAR
STARTCHAR igrave
ENCODING 236
SWIDTH 231 0
DWIDTH 3 0
BBX 2 10 0 0
BITMAP
80
40
C0
C0
C0
C0
C0
C0
C0
C0
ENDCHAR
STARTCHAR iacute
ENCODING 237
SWIDTH 231 0
DWIDTH 3 0
BBX 2 10 0 0
BITMAP
40
80
C0
C0
C0
C0
C0
C0
C0
C0
ENDCHAR
STARTCHAR icircumflex
ENCODING 238
SWIDTH 385 0
DWIDTH 5 0
BBX 4 10 0 0
BITMAP
60
90
60
60
60
60
60
60
60
60
ENDCHAR
STARTCHAR idieresis
ENCODING 239
SWIDTH 385 0
DWIDTH 5 0
BBX 4 10 0 0
BITMAP
90
00
60
60
60
60
60
60
60
60
ENDCHAR
STARTCHAR eth
ENCODING 240
SWIDTH 538 0
DWIDTH 7 0
BBX 6 10 0 0
BITMAP
08
30
38
5C
0C
7C
FC
CC
FC
7C
ENDCHAR
STARTCHAR ntilde
ENCODING 241
SWIDTH 538 0
DWIDTH 7 0
BBX 6 10 0 0
BITMAP
68
58
78
FC
CC
CC
CC
CC
CC
CC
ENDCHAR
STARTCHAR ograve
ENCODING 242
SWIDTH 538 0
DWIDTH 7 0
BBX 6 10 0 0
BITMAP
20
10
78
FC
CC
CC
CC
CC
FC
78
ENDCHAR
STARTCHAR oacute
ENCODING 243
SWIDTH 538 0
DWIDTH 7 0
BBX 6 10 0 0
BITMAP
10
20
78
FC
CC
CC
CC
CC
FC
78
ENDCHAR
STARTCHAR ocircumflex
ENCODING 244
SWIDTH 538 0
DWIDTH 7 0
BBX 6 10 0 0
BITMAP
30
48
78
FC
CC
CC
CC
CC
FC
78
ENDCHAR
STARTCHAR otilde
ENCODING 245
SWIDTH 538 0
DWIDTH 7 0
BBX 6 10 0 0
BITMAP
68
58
78
FC
CC
CC
CC
CC
FC
78
ENDCHAR
STARTCHAR odieresis
ENCODING 246
SWIDTH 538 0
DWIDTH 7 0
BBX 6 10 0 0
BITMAP
48
00
78
FC
CC
CC
CC
CC
FC
78
ENDCHAR
STARTCHAR divide
ENCODING 247
SWIDTH 538 0
DWIDTH 7 0
BBX 6 8 0 0
BITMAP
30
30
00
FC
FC
00
30
30
ENDCHAR
STARTCHAR oslash
ENCODING 248
SWIDTH 538 0
DWIDTH 7 0
BBX 6 10 0 -1
BITMAP
04
7C
FC
CC
DC
EC
CC
FC
F8
80
ENDCHAR
STARTCHAR ugrave
ENCODING 249
SWIDTH 538 0
DWIDTH 7 0
BBX 6 10 0 0
BITMAP
20
10
CC
CC
CC
CC
CC
CC
FC
78
ENDCHAR
STARTCHAR uacute
ENCODING 250
SWIDTH 538 0
DWIDTH 7 0
BBX 6 10 0 0
BITMAP
10
20
CC
CC
CC
CC
CC
CC
FC
78
ENDCHAR
STARTCHAR ucircumflex
ENCODING 251
SWIDTH 538 0
DWIDTH 7 0
BBX 6 10 0 0
BITMAP
30
48
CC
CC
CC
CC
CC
CC
FC
78
ENDCHAR
STARTCHAR udieresis
ENCODING 252
SWIDTH 538 0
DWIDTH 7 0
BBX 6 10 0 0
BITMAP
48
00
CC
CC
CC
CC
CC
CC
FC
78
ENDCHAR
STARTCHAR yacute
ENCODING 253
SWIDTH 538 0
DWIDTH 7 0
BBX 6 10 0 0
BITMAP
10
20
CC
CC
CC
FC
78
30
30
30
ENDCHAR
STARTCHAR thorn
ENCODING 254
SWIDTH 538 0
DWIDTH 7 0
BBX 6 10 0 -1
BITMAP
C0
C0
F8
FC
CC
CC
FC
F8
C0
C0
ENDCHAR
STARTCHAR ydieresis
ENCODING 255
SWIDTH 538 0
DWIDTH 7 0
BBX 6 10 0 0
BITMAP
48
00
CC
CC
CC
FC
78
30
30
30
ENDCHAR
ENDFONT
